<?xml version="1.0" encoding="iso-8859-1"?>
<!-- Generator: Adobe Illustrator 19.0.0, SVG Export Plug-In . SVG Version: 6.00 Build 0)  -->
<svg version="1.1" id="Layer_1" xmlns="http://www.w3.org/2000/svg" xmlns:xlink="http://www.w3.org/1999/xlink" x="0px" y="0px"
	 viewBox="0 0 512 512" style="enable-background:new 0 0 512 512;" xml:space="preserve">
<path style="fill:#006DF0;" d="M498.824,239.723L312.04,199.96L272.276,13.175C270.641,5.493,263.855,0,256.001,0
	c-7.854,0-14.641,5.493-16.276,13.175L199.961,199.96L13.176,239.723C5.493,241.359,0.001,248.144,0.001,256
	c0,7.856,5.493,14.641,13.175,16.276l186.785,39.764l39.764,186.784c1.636,7.682,8.421,13.175,16.276,13.175
	c7.854,0,14.641-5.493,16.276-13.175l39.764-186.784l186.785-39.764c7.682-1.636,13.175-8.421,13.175-16.276
	S506.507,241.359,498.824,239.723z"/>
<path style="fill:#005ECE;" d="M498.824,239.723L312.04,199.96L272.276,13.175C270.641,5.493,263.855,0,256.001,0v512
	c7.856,0,14.641-5.493,16.276-13.175L312.04,312.04l186.784-39.764c7.682-1.636,13.175-8.421,13.175-16.276
	C511.999,248.147,506.507,241.359,498.824,239.723z"/>
<path style="fill:#BDDBFF;" d="M256.001,112.335c-79.218,0-143.665,64.447-143.665,143.665s64.447,143.665,143.665,143.665
	S399.666,335.218,399.666,256S335.218,112.335,256.001,112.335z"/>
<path style="fill:#9BC9FF;" d="M256.001,112.335v287.33c79.218,0,143.665-64.447,143.665-143.665S335.218,112.335,256.001,112.335z"
	/>
<path style="fill:#80B7ED;" d="M256.001,158.391v195.218c53.822,0,97.609-43.787,97.609-97.609
	C353.61,202.177,309.822,158.391,256.001,158.391z"/>
<path style="fill:#9BC9FF;" d="M158.392,256c0,53.822,43.787,97.609,97.609,97.609V158.391
	C202.178,158.391,158.392,202.177,158.392,256z"/>
<circle style="fill:#57A4FF;" cx="256.002" cy="256.001" r="33.281"/>
<path style="fill:#2488FF;" d="M256.001,222.719v66.563c18.381,0,33.281-14.9,33.281-33.281S274.381,222.719,256.001,222.719z"/>
<g>
</g>
<g>
</g>
<g>
</g>
<g>
</g>
<g>
</g>
<g>
</g>
<g>
</g>
<g>
</g>
<g>
</g>
<g>
</g>
<g>
</g>
<g>
</g>
<g>
</g>
<g>
</g>
<g>
</g>
</svg>
